<svg width="100" height="100" viewBox="0 0 100 100" fill="none" xmlns="http://www.w3.org/2000/svg">
<circle cx="50" cy="50" r="50" fill="#7D54D4"/>
<path d="M30.8542 30.8541C27.8958 33.7916 27.8958 43.3541 30.8542 46.2291C33.0748 47.8513 35.7986 48.6338 38.5417 48.4375C41.2847 48.6338 44.0085 47.8513 46.2292 46.2291C49.1875 43.2916 49.1875 33.7291 46.2292 30.8541C43.2708 27.9791 33.7917 27.8958 30.8542 30.8541ZM30.8542 53.7708C27.8958 56.7083 27.8958 66.2708 30.8542 69.1458C33.0748 70.768 35.7986 71.5505 38.5417 71.3541C41.2847 71.5505 44.0085 70.768 46.2292 69.1458C49.1875 66.2083 49.1875 56.6458 46.2292 53.7708C43.2708 50.8958 33.7917 50.8125 30.8542 53.7708ZM61.4583 48.4375C64.2014 48.6338 66.9252 47.8513 69.1458 46.2291C72.1042 43.2916 72.1042 33.7291 69.1458 30.8541C66.1875 27.9791 56.6458 27.8958 53.7708 30.8541C50.8958 33.8124 50.8125 43.3541 53.7708 46.2291C55.9915 47.8513 58.7153 48.6338 61.4583 48.4375ZM53.7708 53.7708C50.8125 56.7083 50.8125 66.2708 53.7708 69.1458C55.9915 70.768 58.7153 71.5505 61.4583 71.3541C64.2014 71.5505 66.9252 70.768 69.1458 69.1458C72.1042 66.2083 72.1042 56.6458 69.1458 53.7708C66.1875 50.8958 56.7083 50.8125 53.7708 53.7708Z" fill="white"/>
</svg>
