<svg width="26" height="24" viewBox="0 0 26 24" fill="none" xmlns="http://www.w3.org/2000/svg">
<g opacity="0.5">
<path fill-rule="evenodd" clip-rule="evenodd" d="M7.2595 6.75H5.931C5.48843 6.75002 5.06231 6.91771 4.73843 7.21932C4.41456 7.52093 4.21699 7.93406 4.1855 8.3755L3.3285 20.3755C3.31141 20.6152 3.34386 20.8558 3.42383 21.0824C3.5038 21.309 3.62959 21.5167 3.79335 21.6926C3.9571 21.8684 4.15532 22.0087 4.37565 22.1046C4.59598 22.2005 4.8337 22.25 5.074 22.25H18.926C19.1663 22.2498 19.4039 22.2002 19.6242 22.1043C19.8444 22.0083 20.0426 21.8681 20.2063 21.6923C20.37 21.5164 20.4958 21.3088 20.5759 21.0823C20.6559 20.8557 20.6884 20.6152 20.6715 20.3755L19.8145 8.3755C19.783 7.93406 19.5854 7.52093 19.2616 7.21932C18.9377 6.91771 18.5116 6.75002 18.069 6.75H16.75V6.5C16.75 5.24022 16.2496 4.03204 15.3588 3.14124C14.468 2.25044 13.2598 1.75 12 1.75C9.4725 1.75 7.1365 3.763 7.25 6.5L7.2595 6.75ZM15.25 6.75V6.5C15.25 5.63805 14.9076 4.8114 14.2981 4.2019C13.6886 3.59241 12.862 3.25 12 3.25C11.138 3.25 10.3114 3.59241 9.7019 4.2019C9.09241 4.8114 8.75 5.63805 8.75 6.5V6.75H15.25Z" fill="#7D54D4"/>
</g>
<circle cx="19.5" cy="6.5" r="6" fill="#34A621" stroke="white"/>
<path d="M18.0605 5.39148C18.0806 4.94763 18.2218 4.60586 18.4839 4.36618C18.75 4.12206 19.0988 4 19.5302 4C19.8246 4 20.0766 4.0577 20.2863 4.1731C20.496 4.28407 20.6532 4.43719 20.7581 4.63249C20.8669 4.82335 20.9214 5.04083 20.9214 5.28495C20.9214 5.56458 20.8548 5.80204 20.7218 5.99734C20.5927 6.18819 20.4375 6.31691 20.256 6.38349V6.41012C20.4899 6.49001 20.6714 6.63205 20.8004 6.83622C20.9335 7.04039 21 7.30226 21 7.62184C21 7.88815 20.9435 8.12561 20.8306 8.33422C20.7218 8.54283 20.5585 8.70706 20.3407 8.8269C20.127 8.9423 19.869 9 19.5665 9C19.1109 9 18.7399 8.8735 18.4536 8.62051C18.1673 8.36751 18.0161 7.99467 18 7.502H18.8226C18.8306 7.71949 18.8972 7.89481 19.0222 8.02796C19.1512 8.15668 19.3266 8.22104 19.5484 8.22104C19.754 8.22104 19.9113 8.1589 20.0202 8.03462C20.1331 7.9059 20.1895 7.74168 20.1895 7.54194C20.1895 7.27563 20.1129 7.08478 19.9597 6.96937C19.8065 6.85397 19.5685 6.79627 19.246 6.79627H19.0706V6.03063H19.246C19.8185 6.03063 20.1048 5.8198 20.1048 5.39814C20.1048 5.20728 20.0524 5.05859 19.9476 4.95206C19.8468 4.84554 19.6996 4.79228 19.506 4.79228C19.3165 4.79228 19.1694 4.84998 19.0645 4.96538C18.9637 5.07634 18.9052 5.21838 18.8891 5.39148H18.0605Z" fill="white"/>
</svg>
