<svg width="24" height="31" viewBox="0 0 24 31" fill="none" xmlns="http://www.w3.org/2000/svg">
<path d="M23.2969 15.4844H20.8223L15.4084 8.71702C15.1659 8.41388 14.7234 8.36462 14.4202 8.60724C14.1169 8.84982 14.0677 9.29227 14.3104 9.59551L19.0215 15.4844H4.97855L9.68967 9.59551C9.93225 9.29227 9.88308 8.84977 9.57989 8.60724C9.27661 8.36462 8.83416 8.41384 8.59163 8.71702L3.1777 15.4844H0.703125C0.314812 15.4844 0 15.7992 0 16.1875V17.5937C0 17.9821 0.314812 18.2969 0.703125 18.2969H23.2969C23.6852 18.2969 24 17.9821 24 17.5937V16.1875C24 15.7992 23.6852 15.4844 23.2969 15.4844ZM4.2458 29.0369C4.28778 29.1838 4.37647 29.3131 4.49845 29.4051C4.62044 29.4971 4.76908 29.5469 4.92188 29.5469H19.0781C19.2309 29.5469 19.3796 29.4971 19.5015 29.4051C19.6235 29.3131 19.7122 29.1838 19.7542 29.0369L22.421 19.7031H1.57903L4.2458 29.0369ZM15.2205 25.9157L15.9236 21.6969C15.9875 21.3139 16.3497 21.0549 16.7328 21.119C17.1158 21.1828 17.3746 21.5451 17.3107 21.9281L16.6076 26.1469C16.5503 26.4908 16.2524 26.7346 15.9149 26.7346C15.8765 26.7346 15.8376 26.7314 15.7985 26.7249C15.4154 26.661 15.1567 26.2987 15.2205 25.9157ZM11.2969 21.8125C11.2969 21.4242 11.6117 21.1094 12 21.1094C12.3883 21.1094 12.7031 21.4242 12.7031 21.8125V26.0312C12.7031 26.4196 12.3883 26.7344 12 26.7344C11.6117 26.7344 11.2969 26.4196 11.2969 26.0312V21.8125ZM7.31409 21.119C7.6972 21.0552 8.05941 21.3139 8.12325 21.6969L8.82638 25.9157C8.89022 26.2987 8.63147 26.661 8.24841 26.7249C8.20931 26.7314 8.17036 26.7346 8.13197 26.7346C7.79442 26.7346 7.49658 26.4909 7.43925 26.1469L6.73612 21.9281C6.67228 21.5451 6.93103 21.1828 7.31409 21.119Z" fill="#7E54D4"/>
<circle cx="12.5" cy="6.5" r="6" fill="#34A621" stroke="#F2EEFB"/>
<path d="M11.0605 5.39148C11.0806 4.94763 11.2218 4.60586 11.4839 4.36618C11.75 4.12206 12.0988 4 12.5302 4C12.8246 4 13.0766 4.0577 13.2863 4.1731C13.496 4.28407 13.6532 4.43719 13.7581 4.63249C13.8669 4.82335 13.9214 5.04083 13.9214 5.28495C13.9214 5.56458 13.8548 5.80204 13.7218 5.99734C13.5927 6.18819 13.4375 6.31691 13.256 6.38349V6.41012C13.4899 6.49001 13.6714 6.63205 13.8004 6.83622C13.9335 7.04039 14 7.30226 14 7.62184C14 7.88815 13.9435 8.12561 13.8306 8.33422C13.7218 8.54283 13.5585 8.70706 13.3407 8.8269C13.127 8.9423 12.869 9 12.5665 9C12.1109 9 11.7399 8.8735 11.4536 8.62051C11.1673 8.36751 11.0161 7.99467 11 7.502H11.8226C11.8306 7.71949 11.8972 7.89481 12.0222 8.02796C12.1512 8.15668 12.3266 8.22104 12.5484 8.22104C12.754 8.22104 12.9113 8.1589 13.0202 8.03462C13.1331 7.9059 13.1895 7.74168 13.1895 7.54194C13.1895 7.27563 13.1129 7.08478 12.9597 6.96937C12.8065 6.85397 12.5685 6.79627 12.246 6.79627H12.0706V6.03063H12.246C12.8185 6.03063 13.1048 5.8198 13.1048 5.39814C13.1048 5.20728 13.0524 5.05859 12.9476 4.95206C12.8468 4.84554 12.6996 4.79228 12.506 4.79228C12.3165 4.79228 12.1694 4.84998 12.0645 4.96538C11.9637 5.07634 11.9052 5.21838 11.8891 5.39148H11.0605Z" fill="white"/>
</svg>
