<svg width="24" height="24" viewBox="0 0 24 24" fill="none" xmlns="http://www.w3.org/2000/svg">
<g opacity="0.5">
<path d="M20.1327 5.31694L20.1331 5.31727C20.5511 5.73516 20.8828 6.23133 21.1091 6.77743C21.3354 7.32354 21.4518 7.90887 21.4518 8.49999C21.4518 9.09112 21.3354 9.67645 21.1091 10.2226C20.8828 10.7687 20.5511 11.2648 20.1331 11.6827L20.1329 11.6829L19.0729 12.7429L12 19.8158L4.92711 12.7429L3.86711 11.6829C3.02295 10.8387 2.54871 9.69381 2.54871 8.49999C2.54871 7.30618 3.02295 6.16126 3.86711 5.3171C4.71126 4.47295 5.85618 3.9987 7.05 3.9987C8.24382 3.9987 9.38874 4.47295 10.2329 5.3171L11.2929 6.3771C11.6834 6.76763 12.3166 6.76763 12.7071 6.3771L13.7671 5.3171L13.7673 5.31694C14.1852 4.89885 14.6813 4.56719 15.2274 4.34091C15.7735 4.11463 16.3589 3.99817 16.95 3.99817C17.5411 3.99817 18.1265 4.11463 18.6726 4.34091C19.2187 4.56719 19.7148 4.89885 20.1327 5.31694Z" fill="#7D54D4" stroke="#7D54D4" stroke-width="2" stroke-linecap="round" stroke-linejoin="round"/>
</g>
</svg>
