<svg width="12" height="14" viewBox="0 0 12 14" fill="none" xmlns="http://www.w3.org/2000/svg">
<path fill-rule="evenodd" clip-rule="evenodd" d="M6.167 4.66669C5.52367 4.66669 5.00034 5.19002 5.00034 5.83402C5.00034 6.47735 5.52367 7.00002 6.167 7.00002C6.81034 7.00002 7.33367 6.47735 7.33367 5.83402C7.33367 5.19002 6.81034 4.66669 6.167 4.66669M6.167 8.00002C4.97234 8.00002 4.00034 7.02869 4.00034 5.83402C4.00034 4.63869 4.97234 3.66669 6.167 3.66669C7.36167 3.66669 8.33367 4.63869 8.33367 5.83402C8.33367 7.02869 7.36167 8.00002 6.167 8.00002" fill="#62598D"/>
<mask id="mask0_2001_41" style="mask-type:luminance" maskUnits="userSpaceOnUse" x="0" y="0" width="12" height="14">
<path fill-rule="evenodd" clip-rule="evenodd" d="M0.666672 0.333344H11.6663V13.3333H0.666672V0.333344Z" fill="white"/>
</mask>
<g mask="url(#mask0_2001_41)">
<path fill-rule="evenodd" clip-rule="evenodd" d="M6.16634 1.33334C3.685 1.33334 1.66634 3.37134 1.66634 5.87534C1.66634 9.06134 5.41567 12.1653 6.16634 12.3307C6.917 12.1647 10.6663 9.06068 10.6663 5.87534C10.6663 3.37134 8.64767 1.33334 6.16634 1.33334V1.33334ZM6.16634 13.3333C4.97034 13.3333 0.666336 9.63201 0.666336 5.87534C0.666336 2.81934 3.13367 0.333344 6.16634 0.333344C9.199 0.333344 11.6663 2.81934 11.6663 5.87534C11.6663 9.63201 7.36234 13.3333 6.16634 13.3333V13.3333Z" fill="#62598D"/>
</g>
</svg>
