<svg width="30" height="30" viewBox="0 0 30 30" fill="none" xmlns="http://www.w3.org/2000/svg">
<rect opacity="0.1" width="30" height="30" rx="15" fill="#FF1D1D"/>
<g clip-path="url(#clip0_1_684)">
<path d="M20.2 10.6529C19.8995 10.3524 19.5428 10.1139 19.1502 9.95122C18.7575 9.78854 18.3367 9.7048 17.9117 9.7048C17.4867 9.7048 17.0659 9.78854 16.6733 9.95122C16.2807 10.1139 15.9239 10.3524 15.6235 10.6529L15 11.2765L14.3764 10.6529C13.7696 10.0461 12.9465 9.70512 12.0882 9.70512C11.2299 9.70512 10.4068 10.0461 9.79996 10.6529C9.19308 11.2598 8.85214 12.0829 8.85214 12.9412C8.85214 13.7994 9.19308 14.6225 9.79996 15.2294L10.4235 15.8529L15 20.4294L19.5764 15.8529L20.2 15.2294C20.5005 14.929 20.739 14.5722 20.9017 14.1796C21.0644 13.787 21.1481 13.3662 21.1481 12.9412C21.1481 12.5162 21.0644 12.0954 20.9017 11.7027C20.739 11.3101 20.5005 10.9534 20.2 10.6529Z" fill="#FF1D1D" stroke="#FF1D1D" stroke-width="2" stroke-linecap="round" stroke-linejoin="round"/>
</g>
<defs>
<clipPath id="clip0_1_684">
<rect width="14.1176" height="14.1176" fill="white" transform="translate(7.94116 7.94118)"/>
</clipPath>
</defs>
</svg>
