<svg width="30" height="30" viewBox="0 0 30 30" fill="none" xmlns="http://www.w3.org/2000/svg">
<rect opacity="0.1" width="30" height="30" rx="15" fill="#A7A1A1"/>
<path d="M15.0931 10.1227L15 10.2158L14.9068 10.1226C14.1593 9.37508 13.1454 8.95512 12.0882 8.95512C11.0311 8.95512 10.0172 9.37508 9.26966 10.1226C8.52213 10.8701 8.10217 11.884 8.10217 12.9412C8.10217 13.9983 8.52213 15.0122 9.26966 15.7597L9.89319 16.3833L14.4697 20.9597C14.6103 21.1004 14.8011 21.1794 15 21.1794C15.1989 21.1794 15.3897 21.1004 15.5303 20.9597L20.1068 16.3833L20.7302 15.7599C21.1005 15.3898 21.3942 14.9503 21.5946 14.4667C21.795 13.9831 21.8981 13.4647 21.8981 12.9412C21.8981 12.4177 21.795 11.8993 21.5946 11.4156C21.3942 10.9321 21.1006 10.4928 20.7304 10.1227C20.7304 10.1227 20.7304 10.1226 20.7303 10.1226C20.7303 10.1226 20.7302 10.1225 20.7302 10.1225C20.3602 9.75233 19.9208 9.4587 19.4373 9.25834C18.9537 9.05795 18.4353 8.9548 17.9118 8.9548C17.3882 8.9548 16.8699 9.05795 16.3862 9.25834C15.9026 9.45872 15.4633 9.7524 15.0932 10.1226C15.0931 10.1226 15.0931 10.1227 15.0931 10.1227Z" stroke="#A7A1A1" stroke-width="1.5" stroke-linecap="round" stroke-linejoin="round"/>
</svg>
