<svg width="96" height="16" viewBox="0 0 96 16" fill="none" xmlns="http://www.w3.org/2000/svg">
<path d="M9.15333 2.34001L10.3267 4.68668C10.4867 5.01334 10.9133 5.32668 11.2733 5.38668L13.4 5.74001C14.76 5.96668 15.08 6.95334 14.1 7.92668L12.4467 9.58001C12.1667 9.86001 12.0133 10.4 12.1 10.7867L12.5733 12.8333C12.9467 14.4533 12.0867 15.08 10.6533 14.2333L8.66 13.0533C8.3 12.84 7.70667 12.84 7.34 13.0533L5.34667 14.2333C3.92 15.08 3.05333 14.4467 3.42667 12.8333L3.9 10.7867C3.98667 10.4 3.83333 9.86001 3.55333 9.58001L1.9 7.92668C0.926667 6.95334 1.24 5.96668 2.6 5.74001L4.72667 5.38668C5.08 5.32668 5.50667 5.01334 5.66667 4.68668L6.84 2.34001C7.48 1.06668 8.52 1.06668 9.15333 2.34001Z" fill="#F59E0B"/>
<path d="M29.1533 2.34001L30.3267 4.68668C30.4867 5.01334 30.9133 5.32668 31.2733 5.38668L33.4 5.74001C34.76 5.96668 35.08 6.95334 34.1 7.92668L32.4467 9.58001C32.1667 9.86001 32.0133 10.4 32.1 10.7867L32.5733 12.8333C32.9467 14.4533 32.0867 15.08 30.6533 14.2333L28.66 13.0533C28.3 12.84 27.7067 12.84 27.34 13.0533L25.3467 14.2333C23.92 15.08 23.0533 14.4467 23.4267 12.8333L23.9 10.7867C23.9867 10.4 23.8333 9.86001 23.5533 9.58001L21.9 7.92668C20.9267 6.95334 21.24 5.96668 22.6 5.74001L24.7267 5.38668C25.08 5.32668 25.5067 5.01334 25.6667 4.68668L26.84 2.34001C27.48 1.06668 28.52 1.06668 29.1533 2.34001Z" fill="#F59E0B"/>
<path d="M49.1533 2.34001L50.3267 4.68668C50.4867 5.01334 50.9133 5.32668 51.2733 5.38668L53.4 5.74001C54.76 5.96668 55.08 6.95334 54.1 7.92668L52.4467 9.58001C52.1667 9.86001 52.0133 10.4 52.1 10.7867L52.5733 12.8333C52.9467 14.4533 52.0867 15.08 50.6533 14.2333L48.66 13.0533C48.3 12.84 47.7067 12.84 47.34 13.0533L45.3467 14.2333C43.92 15.08 43.0533 14.4467 43.4267 12.8333L43.9 10.7867C43.9867 10.4 43.8333 9.86001 43.5533 9.58001L41.9 7.92668C40.9267 6.95334 41.24 5.96668 42.6 5.74001L44.7267 5.38668C45.08 5.32668 45.5067 5.01334 45.6667 4.68668L46.84 2.34001C47.48 1.06668 48.52 1.06668 49.1533 2.34001Z" fill="#F59E0B"/>
<path d="M69.1533 2.34001L70.3267 4.68668C70.4867 5.01334 70.9133 5.32668 71.2733 5.38668L73.4 5.74001C74.76 5.96668 75.08 6.95334 74.1 7.92668L72.4467 9.58001C72.1667 9.86001 72.0133 10.4 72.1 10.7867L72.5733 12.8333C72.9467 14.4533 72.0867 15.08 70.6533 14.2333L68.66 13.0533C68.3 12.84 67.7067 12.84 67.34 13.0533L65.3467 14.2333C63.92 15.08 63.0533 14.4467 63.4267 12.8333L63.9 10.7867C63.9867 10.4 63.8333 9.86001 63.5533 9.58001L61.9 7.92668C60.9267 6.95334 61.24 5.96668 62.6 5.74001L64.7267 5.38668C65.08 5.32668 65.5067 5.01334 65.6667 4.68668L66.84 2.34001C67.48 1.06668 68.52 1.06668 69.1533 2.34001Z" fill="#F59E0B"/>
<path d="M89.1533 2.34001L90.3267 4.68668C90.4867 5.01334 90.9133 5.32668 91.2733 5.38668L93.4 5.74001C94.76 5.96668 95.08 6.95334 94.1 7.92668L92.4467 9.58001C92.1667 9.86001 92.0133 10.4 92.1 10.7867L92.5733 12.8333C92.9467 14.4533 92.0867 15.08 90.6533 14.2333L88.66 13.0533C88.3 12.84 87.7067 12.84 87.34 13.0533L85.3467 14.2333C83.92 15.08 83.0533 14.4467 83.4267 12.8333L83.9 10.7867C83.9867 10.4 83.8333 9.86001 83.5533 9.58001L81.9 7.92668C80.9267 6.95334 81.24 5.96668 82.6 5.74001L84.7267 5.38668C85.08 5.32668 85.5067 5.01334 85.6667 4.68668L86.84 2.34001C87.48 1.06668 88.52 1.06668 89.1533 2.34001Z" fill="#F59E0B"/>
</svg>
