<svg width="15" height="15" viewBox="0 0 15 15" fill="none" xmlns="http://www.w3.org/2000/svg">
<path d="M9.1875 14.2187H5.8125C2.725 14.2187 1.4125 12.9 1.4125 9.81875V7.0125C1.4125 6.75625 1.625 6.54375 1.88125 6.54375C2.1375 6.54375 2.35 6.75625 2.35 7.0125V9.81875C2.35 12.375 3.25625 13.2812 5.8125 13.2812H9.18125C11.7375 13.2812 12.6437 12.375 12.6437 9.81875V7.0125C12.6437 6.75625 12.8562 6.54375 13.1125 6.54375C13.3687 6.54375 13.5812 6.75625 13.5812 7.0125V9.81875C13.5875 12.9 12.2687 14.2187 9.1875 14.2187Z" fill="#62598D"/>
<path d="M7.5 7.96875C6.8125 7.96875 6.1875 7.7 5.74375 7.20625C5.3 6.7125 5.09375 6.06875 5.1625 5.38125L5.58125 1.20625C5.60625 0.96875 5.80625 0.78125 6.05 0.78125H8.96875C9.2125 0.78125 9.4125 0.9625 9.4375 1.20625L9.85625 5.38125C9.925 6.06875 9.71875 6.7125 9.275 7.20625C8.8125 7.7 8.1875 7.96875 7.5 7.96875ZM6.46875 1.71875L6.09375 5.475C6.05 5.89375 6.175 6.2875 6.4375 6.575C6.96875 7.1625 8.03125 7.1625 8.5625 6.575C8.825 6.28125 8.95 5.8875 8.90625 5.475L8.53125 1.71875H6.46875Z" fill="#62598D"/>
<path d="M11.4438 7.96875C10.175 7.96875 9.04375 6.94375 8.9125 5.68125L8.475 1.3C8.4625 1.16875 8.50625 1.0375 8.59375 0.9375C8.68125 0.8375 8.80625 0.78125 8.94375 0.78125H10.85C12.6875 0.78125 13.5438 1.55 13.8 3.4375L13.975 5.175C14.05 5.9125 13.825 6.6125 13.3438 7.14375C12.8625 7.675 12.1875 7.96875 11.4438 7.96875ZM9.4625 1.71875L9.85 5.5875C9.93125 6.36875 10.6563 7.03125 11.4438 7.03125C11.9188 7.03125 12.3438 6.85 12.65 6.51875C12.95 6.1875 13.0875 5.74375 13.0438 5.26875L12.8688 3.55C12.675 2.1375 12.2188 1.71875 10.85 1.71875H9.4625Z" fill="#62598D"/>
<path d="M3.525 7.96875C2.78125 7.96875 2.10625 7.675 1.625 7.14375C1.14375 6.6125 0.918748 5.9125 0.993748 5.175L1.1625 3.45625C1.425 1.55 2.28125 0.78125 4.11875 0.78125H6.025C6.15625 0.78125 6.28125 0.8375 6.375 0.9375C6.46875 1.0375 6.50625 1.16875 6.49375 1.3L6.05625 5.68125C5.925 6.94375 4.79375 7.96875 3.525 7.96875ZM4.11875 1.71875C2.75 1.71875 2.29375 2.13125 2.09375 3.5625L1.925 5.26875C1.875 5.74375 2.01875 6.1875 2.31875 6.51875C2.61875 6.85 3.04375 7.03125 3.525 7.03125C4.3125 7.03125 5.04375 6.36875 5.11875 5.5875L5.50625 1.71875H4.11875Z" fill="#62598D"/>
<path d="M9.0625 14.2188H5.9375C5.68125 14.2188 5.46875 14.0062 5.46875 13.75V12.1875C5.46875 10.875 6.1875 10.1562 7.5 10.1562C8.8125 10.1562 9.53125 10.875 9.53125 12.1875V13.75C9.53125 14.0062 9.31875 14.2188 9.0625 14.2188ZM6.40625 13.2812H8.59375V12.1875C8.59375 11.4 8.2875 11.0938 7.5 11.0938C6.7125 11.0938 6.40625 11.4 6.40625 12.1875V13.2812Z" fill="#62598D"/>
</svg>
