<svg width="30" height="30" viewBox="0 0 30 30" fill="none" xmlns="http://www.w3.org/2000/svg">
<rect opacity="0.1" width="30" height="30" rx="15" fill="#7D54D4"/>
<path fill-rule="evenodd" clip-rule="evenodd" d="M11.4446 11.0625H10.4482C10.1163 11.0625 9.79673 11.1883 9.55382 11.4145C9.31091 11.6407 9.16273 11.9505 9.13912 12.2816L8.49637 21.2816C8.48355 21.4614 8.50788 21.6419 8.56786 21.8118C8.62785 21.9818 8.72218 22.1375 8.845 22.2694C8.96782 22.4013 9.11648 22.5065 9.28173 22.5784C9.44698 22.6504 9.62527 22.6875 9.80549 22.6875H20.1945C20.3747 22.6874 20.5529 22.6502 20.7181 22.5782C20.8833 22.5063 21.0319 22.4011 21.1547 22.2692C21.2775 22.1373 21.3719 21.9816 21.4319 21.8117C21.4919 21.6418 21.5163 21.4614 21.5036 21.2816L20.8609 12.2816C20.8373 11.9505 20.6891 11.6407 20.4462 11.4145C20.2033 11.1883 19.8837 11.0625 19.5517 11.0625H18.5625V10.875C18.5625 9.93017 18.1872 9.02403 17.5191 8.35593C16.851 7.68783 15.9448 7.3125 15 7.3125C13.1044 7.3125 11.3524 8.82225 11.4375 10.875L11.4446 11.0625ZM18.5625 12.1875V15C18.5625 15.1492 18.5032 15.2923 18.3977 15.3977C18.2923 15.5032 18.1492 15.5625 18 15.5625C17.8508 15.5625 17.7077 15.5032 17.6022 15.3977C17.4968 15.2923 17.4375 15.1492 17.4375 15V12.1875H12.5625V15C12.5625 15.1492 12.5032 15.2923 12.3977 15.3977C12.2923 15.5032 12.1492 15.5625 12 15.5625C11.8508 15.5625 11.7077 15.5032 11.6022 15.3977C11.4968 15.2923 11.4375 15.1492 11.4375 15C11.4375 15 11.4862 13.6856 11.4701 12.1875H10.4482C10.4009 12.1876 10.3553 12.2055 10.3207 12.2378C10.286 12.2701 10.2649 12.3143 10.2615 12.3615L9.61837 21.3615C9.61651 21.3872 9.61998 21.413 9.62854 21.4373C9.6371 21.4616 9.65059 21.4839 9.66815 21.5028C9.68571 21.5216 9.70696 21.5367 9.7306 21.5469C9.75423 21.5572 9.77972 21.5625 9.80549 21.5625H20.1945C20.2202 21.5624 20.2457 21.557 20.2693 21.5467C20.2928 21.5364 20.314 21.5214 20.3316 21.5025C20.3491 21.4837 20.3626 21.4615 20.3712 21.4372C20.3798 21.4129 20.3834 21.3872 20.3816 21.3615L19.7385 12.3615C19.7351 12.3143 19.7139 12.2701 19.6793 12.2378C19.6447 12.2055 19.5991 12.1876 19.5517 12.1875H18.5625ZM17.4375 11.0625V10.875C17.4375 10.2285 17.1807 9.60855 16.7236 9.15143C16.2664 8.69431 15.6465 8.4375 15 8.4375C14.3535 8.4375 13.7335 8.69431 13.2764 9.15143C12.8193 9.60855 12.5625 10.2285 12.5625 10.875V11.0625H17.4375Z" fill="#7D54D4"/>
</svg>
