<svg width="67" height="16" viewBox="0 0 67 16" fill="none" xmlns="http://www.w3.org/2000/svg">
<mask id="mask0_385_132" style="mask-type:luminance" maskUnits="userSpaceOnUse" x="0" y="0" width="67" height="16">
<path d="M67 0H0V15.2933H67V0Z" fill="white"/>
</mask>
<g mask="url(#mask0_385_132)">
<path d="M1.12268 1.20187C1.12268 0.5497 0.914001 0.496594 3.41027e-05 0.210571H5.25277C4.28197 0.515227 4.13008 0.629817 4.13008 1.39285V4.56053C4.28195 4.19811 4.41521 3.90836 4.56708 3.60743L4.62481 3.49284C5.21455 2.29099 6.07079 1.09006 7.28848 0.499386C7.68082 0.312398 8.10974 0.214719 8.54437 0.213369C9.03991 0.219367 9.52818 0.333331 9.97517 0.547335C10.4222 0.761338 10.8171 1.07023 11.1325 1.45248C11.599 2.07445 11.9061 2.8012 12.0269 3.56923C12.0456 3.72202 12.0837 3.89345 12.1033 4.04624C12.1126 4.19206 12.1126 4.33832 12.1033 4.48414C12.2365 4.15992 12.3884 3.89345 12.5217 3.60743L12.5785 3.49284C13.1682 2.29099 14.0254 1.09006 15.2431 0.499386C15.6354 0.31231 16.0643 0.214626 16.4989 0.213369C16.9913 0.221631 17.4759 0.336701 17.9194 0.550644C18.3629 0.764587 18.7546 1.07229 19.0675 1.45248C19.534 2.07445 19.8411 2.8012 19.962 3.56923C20.0113 3.72412 20.0425 3.88418 20.0551 4.04624V14.057C20.0551 14.7092 20.2647 14.8024 21.1778 15.0819H15.8309C16.744 14.7958 16.9536 14.7008 16.9536 14.057V4.75152C16.9536 3.41644 16.4589 2.15776 15.4881 1.90993C15.3454 1.87104 15.198 1.85192 15.0502 1.8531C14.771 1.85735 14.497 1.92928 14.2517 2.06273C13.6238 2.36739 13.1664 2.99439 12.8244 3.60743C12.5059 4.15023 12.2627 4.73384 12.1014 5.3422V14.3049C12.1946 14.7055 12.4434 14.8387 13.2046 15.0865H7.95275C8.63752 14.8583 8.90398 14.7623 9.01857 14.4576V4.74873C9.01857 3.41365 8.52386 2.15496 7.55306 1.90714C7.41039 1.86824 7.26303 1.84912 7.11515 1.85031C6.83004 1.85666 6.5502 1.92838 6.29717 2.05993C5.66922 2.36459 5.23135 2.9916 4.88943 3.60463C4.54969 4.18902 4.29344 4.81811 4.12822 5.47357V13.8828C4.12822 14.6458 4.28011 14.7595 5.25091 15.0837H-0.00183105C0.912136 14.7791 1.12081 14.7213 1.12081 14.0924L1.12268 1.20187Z" fill="#7D54D4"/>
<path d="M33.1367 14.016C34.1615 13.4253 34.6394 12.3567 34.6394 11.0226C34.6394 9.47785 34.0115 7.59029 32.9466 5.7018C31.3479 2.86114 29.2199 0.915816 27.2755 0.915816C26.7948 0.91396 26.322 1.03897 25.905 1.27824C24.8802 1.86891 24.4023 2.93661 24.4023 4.27169C24.4023 5.8164 25.0302 7.71887 26.096 9.61109C27.6938 12.4331 29.8442 14.3784 31.7662 14.3784C32.2469 14.3803 32.7197 14.2553 33.1367 14.016ZM25.7532 0.992219C27.5179 -0.00506413 29.6062 -0.261502 31.5597 0.279194C33.5133 0.819891 35.1724 2.11355 36.1732 3.87625C37.174 5.63896 37.4346 7.7267 36.8978 9.68132C36.361 11.6359 35.0707 13.2977 33.3099 14.302C32.1591 14.9491 30.8616 15.2907 29.5413 15.2943C27.8535 15.2931 26.2134 14.734 24.8763 13.704C23.5392 12.674 22.58 11.231 22.148 9.59935C21.7161 7.96773 21.8356 6.23908 22.4879 4.68242C23.1403 3.12576 24.2889 1.8284 25.7551 0.992219H25.7532Z" fill="#7D54D4"/>
<path d="M47.6912 11.8424C48.1673 10.2977 48.472 8.6198 48.472 6.96049C48.472 5.75957 48.3191 4.55772 47.9195 3.4332C47.8813 3.29904 47.8263 3.1658 47.7862 3.03258L47.558 2.51737C47.2347 1.83073 46.7968 1.24005 46.112 0.858064C45.5027 0.496577 44.7797 0.438813 44.0754 0.438813H42.0211V14.8555H44.9325C45.212 14.8026 45.4815 14.7061 45.731 14.5694C46.6449 14.0542 47.2347 13.1393 47.5775 12.1667C47.6157 12.0521 47.6576 11.9375 47.6912 11.8424ZM47.748 0.99223C50.4499 2.28818 51.9536 4.71052 51.9536 7.42074C51.9416 8.58708 51.6822 9.73759 51.1924 10.7962C49.9179 13.5614 47.5589 15.0819 44.9325 15.0819H41.9828C40.6124 15.0819 39.2232 15.1014 37.8528 15.1014C38.8776 14.9486 38.9568 14.1856 38.9568 13.3471V1.67887C38.9568 0.668009 38.8636 0.533848 37.8528 0.210559H43.8285C44.5169 0.194806 45.2052 0.245664 45.8838 0.362421C46.5274 0.503114 47.1535 0.714327 47.7508 0.99223H47.748Z" fill="#7D54D4"/>
<path d="M56.5914 6.35025H59.9026L57.9992 1.5829L56.5914 6.35025ZM66.9246 14.9505H67V15.1033H62.1479L62.2048 14.97C62.5858 14.8554 62.9091 14.5499 62.9501 14.302C62.9501 14.2452 62.9687 14.1874 62.9687 14.1492C62.9687 13.8632 62.8551 13.5968 62.76 13.3489L59.9818 6.55988H56.5346L54.4588 13.5772C54.437 13.6711 54.4242 13.7669 54.4206 13.8632C54.4221 14.0969 54.4952 14.3246 54.6303 14.5154C54.7659 14.6895 54.9426 14.8271 55.1445 14.916L55.601 15.1023H52.3663C52.9561 14.835 53.5458 14.3393 53.8309 13.7673L57.5799 1.08632C57.1802 0.705269 56.6669 0.419244 56.0389 0.419244C55.9626 0.419244 55.7343 0.246887 55.7343 0.246887H60.4727C60.606 0.246887 60.8911 0.571104 60.9675 0.743463C62.2234 3.75648 66.3907 14.1297 66.524 14.5685C66.6199 14.8555 66.7569 14.9505 66.9246 14.9505Z" fill="#7D54D4"/>
</g>
</svg>
