<svg xmlns="http://www.w3.org/2000/svg" width="32" height="32" id="google">
  <path fill-rule="evenodd" d="M16.191 2a13.962 13.962 0 0 0-7.968 2.352C2.679 8.056.51 15.199 3.063 21.359c2.551 6.16 9.132 9.676 15.671 8.375 6.54-1.3 11.274-7.068 11.274-13.736a.5.5 0 0 0-.006-.074v-1.426a.5.5 0 0 0-.5-.5h-12a.5.5 0 0 0-.5.5v4a.5.5 0 0 0 .5.5h7.07c-1.043 2.984-3.528 5.323-6.785 5.97a9.122 9.122 0 0 1-10.236-5.47A9.12 9.12 0 0 1 10.92 8.393 9.12 9.12 0 0 1 22.469 9.53a.5.5 0 0 0 .707 0l2.73-2.728a.5.5 0 0 0 0-.707 13.99 13.99 0 0 0-9.685-4.094.5.5 0 0 0-.02 0h-.01V2zm-.013.998V3c.365 0 .732.026 1.097.06 2.751.272 5.376 1.482 7.508 3.45L22.76 8.53C19.326 5.43 14.25 4.962 10.365 7.56c-.95.634-1.756 1.409-2.42 2.275l-2.21-1.803a12.936 12.936 0 0 1 3.042-2.85 12.954 12.954 0 0 1 7.4-2.183zM5.154 8.848l2.219 1.808a10.128 10.128 0 0 0-1.092 8.237l-2.398 1.796A13.012 13.012 0 0 1 5.154 8.848zm12.848 6.148h11v1a.5.5 0 0 0 .002.027 12.984 12.984 0 0 1-3.125 8.413L23.66 22.63a10.103 10.103 0 0 0 2.145-4.006.5.5 0 0 0-.483-.629h-7.32v-3zM6.629 19.883a10.137 10.137 0 0 0 11.353 6.064 10.126 10.126 0 0 0 4.998-2.58l2.221 1.807a12.953 12.953 0 0 1-6.662 3.578c-5.837 1.161-11.692-1.811-14.246-7.121l2.336-1.748z" color="#000" font-family="sans-serif" font-weight="400" overflow="visible" style="line-height:normal;text-indent:0;text-align:start;text-decoration-line:none;text-decoration-style:solid;text-decoration-color:#000;text-transform:none;block-progression:tb;white-space:normal;isolation:auto;mix-blend-mode:normal;solid-color:#000;solid-opacity:1"></path>
</svg>
