<svg width="24" height="24" viewBox="0 0 24 24" fill="none" xmlns="http://www.w3.org/2000/svg">
<path fill-rule="evenodd" clip-rule="evenodd" d="M7.2595 6.75H5.931C5.48843 6.75002 5.06231 6.91771 4.73843 7.21932C4.41456 7.52093 4.21699 7.93406 4.1855 8.3755L3.3285 20.3755C3.31141 20.6152 3.34386 20.8558 3.42383 21.0824C3.5038 21.309 3.62959 21.5167 3.79335 21.6926C3.9571 21.8684 4.15532 22.0087 4.37565 22.1046C4.59598 22.2005 4.8337 22.25 5.074 22.25H18.926C19.1663 22.2498 19.4039 22.2002 19.6242 22.1043C19.8444 22.0083 20.0426 21.8681 20.2063 21.6923C20.37 21.5164 20.4958 21.3088 20.5759 21.0823C20.6559 20.8557 20.6884 20.6152 20.6715 20.3755L19.8145 8.3755C19.783 7.93406 19.5854 7.52093 19.2616 7.21932C18.9377 6.91771 18.5116 6.75002 18.069 6.75H16.75V6.5C16.75 5.24022 16.2496 4.03204 15.3588 3.14124C14.468 2.25044 13.2598 1.75 12 1.75C9.4725 1.75 7.1365 3.763 7.25 6.5L7.2595 6.75ZM15.25 6.75V6.5C15.25 5.63805 14.9076 4.8114 14.2981 4.2019C13.6886 3.59241 12.862 3.25 12 3.25C11.138 3.25 10.3114 3.59241 9.7019 4.2019C9.09241 4.8114 8.75 5.63805 8.75 6.5V6.75H15.25Z" fill="#7D54D4"/>
</svg>
